# xmcd
#
# Track frame offsets: 
#        150
#        8427
#        29580
#        45262
#        95980
#        116435
#        130555
#        154080
#        171920
#        184855
#        204867
#        233032
#        254197
#        287182
#
# Disc length: 4541 seconds
#
# Revision: 26
# Processed by: cddbd v1.5.2PL0 Copyright (c) Steve Scherf et al.
# Submitted via: ExactAudioCopyFreeDBPlugin 1.0
#
DISCID=ba11bb0e
DTITLE=Stevie Ray Vaughan - SRV [box set]
DYEAR=2000
DGENRE=Blues
TTITLE0=Scuttle Buttin'
TTITLE1=Couldn't Stand the Weather
TTITLE2=Empty Arms
TTITLE3=Little Wing - Third Stone from the Sun (live)
TTITLE4=If You Have to Know (ft Lonnie Mack)
TTITLE5=These Blues is Killing Me (ft A.C. Reed)
TTITLE6=Boilermaker (outtake)
TTITLE7=Change It
TTITLE8=Shake 'n Bake (outtake)
TTITLE9=Mary Had a Little Lamb (live)
TTITLE10=I'm Leavin' You (Commit a Crime) (from MTV Live)
TTITLE11=Rude Mood - Pipeline (ft Jimmie Vaughan) (from MTV Live)
TTITLE12=The Sky Is Crying (live at Carnegie Hall)
TTITLE13=Voodoo Chile (Slight Return) (live at Carnegie Hall)
EXTD=Epic/Legacy - E4K 65714 (3CD+DVD]\nRelease Date: 2000-11-21\nUPC 
EXTD=074646571422 YEAR: 2000
EXTT0=
EXTT1=
EXTT2=
EXTT3=
EXTT4=
EXTT5=
EXTT6=
EXTT7=
EXTT8=
EXTT9=
EXTT10=
EXTT11=
EXTT12=
EXTT13=
PLAYORDER=
